{
  "accessors": [
    {
      "bufferView": 2,
      "componentType": 5126,
      "count": 48,
      "max": [
        0.7874999642372131,
        0.7874999642372131,
        1.5
      ],
      "min": [
        -0.7874999642372131,
        -0.7874999642372131,
        -1.5
      ],
      "type": "VEC3"
    },
    {
      "bufferView": 2,
      "byteOffset": 576,
      "componentType": 5126,
      "count": 48,
      "max": [
        0.8381332755088806,
        0.8381332159042358,
        0.44001996517181396
      ],
      "min": [
        -0.8381332159042358,
        -0.8381331562995911,
        -0.44001996517181396
      ],
      "type": "VEC3"
    },
    {
      "bufferView": 1,
      "componentType": 5126,
      "count": 48,
      "max": [
        0.0,
        0.0
      ],
      "min": [
        0.0,
        0.0
      ],
      "type": "VEC2"
    },
    {
      "bufferView": 0,
      "componentType": 5125,
      "count": 48,
      "type": "SCALAR"
    },
    {
      "bufferView": 2,
      "byteOffset": 1152,
      "componentType": 5126,
      "count": 48,
      "max": [
        0.7874999642372131,
        0.7874999642372131,
        1.5
      ],
      "min": [
        -0.7874999642372131,
        -0.7874999642372131,
        -1.5
      ],
      "type": "VEC3"
    },
    {
      "bufferView": 2,
      "byteOffset": 1728,
      "componentType": 5126,
      "count": 48,
      "max": [
        0.8381332755088806,
        0.8381332159042358,
        0.44001996517181396
      ],
      "min": [
        -0.8381332159042358,
        -0.8381331562995911,
        -0.44001996517181396
      ],
      "type": "VEC3"
    },
    {
      "bufferView": 1,
      "byteOffset": 384,
      "componentType": 5126,
      "count": 48,
      "max": [
        0.0,
        0.0
      ],
      "min": [
        0.0,
        0.0
      ],
      "type": "VEC2"
    },
    {
      "bufferView": 0,
      "byteOffset": 192,
      "componentType": 5125,
      "count": 48,
      "type": "SCALAR"
    },
    {
      "bufferView": 2,
      "byteOffset": 2304,
      "componentType": 5126,
      "count": 48,
      "max": [
        0.7874999642372131,
        0.7874999642372131,
        1.5
      ],
      "min": [
        -0.7874999642372131,
        -0.7874999642372131,
        -1.5
      ],
      "type": "VEC3"
    },
    {
      "bufferView": 2,
      "byteOffset": 2880,
      "componentType": 5126,
      "count": 48,
      "max": [
        0.8381332755088806,
        0.8381332159042358,
        0.44001996517181396
      ],
      "min": [
        -0.8381332159042358,
        -0.8381331562995911,
        -0.44001996517181396
      ],
      "type": "VEC3"
    },
    {
      "bufferView": 1,
      "byteOffset": 768,
      "componentType": 5126,
      "count": 48,
      "max": [
        0.0,
        0.0
      ],
      "min": [
        0.0,
        0.0
      ],
      "type": "VEC2"
    },
    {
      "bufferView": 0,
      "byteOffset": 384,
      "componentType": 5125,
      "count": 48,
      "type": "SCALAR"
    },
    {
      "bufferView": 2,
      "byteOffset": 3456,
      "componentType": 5126,
      "count": 48,
      "max": [
        0.7874999642372131,
        0.7874999642372131,
        1.5
      ],
      "min": [
        -0.7874999642372131,
        -0.7874999642372131,
        -1.5
      ],
      "type": "VEC3"
    },
    {
      "bufferView": 2,
      "byteOffset": 4032,
      "componentType": 5126,
      "count": 48,
      "max": [
        0.8381332755088806,
        0.8381332159042358,
        0.44001996517181396
      ],
      "min": [
        -0.8381332159042358,
        -0.8381331562995911,
        -0.44001996517181396
      ],
      "type": "VEC3"
    },
    {
      "bufferView": 1,
      "byteOffset": 1152,
      "componentType": 5126,
      "count": 48,
      "max": [
        0.0,
        0.0
      ],
      "min": [
        0.0,
        0.0
      ],
      "type": "VEC2"
    },
    {
      "bufferView": 0,
      "byteOffset": 576,
      "componentType": 5125,
      "count": 48,
      "type": "SCALAR"
    },
    {
      "bufferView": 2,
      "byteOffset": 4608,
      "componentType": 5126,
      "count": 48,
      "max": [
        0.7874999642372131,
        0.7874999642372131,
        1.5
      ],
      "min": [
        -0.7874999642372131,
        -0.7874999642372131,
        -1.5
      ],
      "type": "VEC3"
    },
    {
      "bufferView": 2,
      "byteOffset": 5184,
      "componentType": 5126,
      "count": 48,
      "max": [
        0.8381332755088806,
        0.8381332159042358,
        0.44001996517181396
      ],
      "min": [
        -0.8381332159042358,
        -0.8381331562995911,
        -0.44001996517181396
      ],
      "type": "VEC3"
    },
    {
      "bufferView": 1,
      "byteOffset": 1536,
      "componentType": 5126,
      "count": 48,
      "max": [
        0.0,
        0.0
      ],
      "min": [
        0.0,
        0.0
      ],
      "type": "VEC2"
    },
    {
      "bufferView": 0,
      "byteOffset": 768,
      "componentType": 5125,
      "count": 48,
      "type": "SCALAR"
    },
    {
      "bufferView": 2,
      "byteOffset": 5760,
      "componentType": 5126,
      "count": 48,
      "max": [
        0.7874999642372131,
        0.7874999642372131,
        1.5
      ],
      "min": [
        -0.7874999642372131,
        -0.7874999642372131,
        -1.5
      ],
      "type": "VEC3"
    },
    {
      "bufferView": 2,
      "byteOffset": 6336,
      "componentType": 5126,
      "count": 48,
      "max": [
        0.8381332755088806,
        0.8381332159042358,
        0.44001996517181396
      ],
      "min": [
        -0.8381332159042358,
        -0.8381331562995911,
        -0.44001996517181396
      ],
      "type": "VEC3"
    },
    {
      "bufferView": 1,
      "byteOffset": 1920,
      "componentType": 5126,
      "count": 48,
      "max": [
        0.0,
        0.0
      ],
      "min": [
        0.0,
        0.0
      ],
      "type": "VEC2"
    },
    {
      "bufferView": 0,
      "byteOffset": 960,
      "componentType": 5125,
      "count": 48,
      "type": "SCALAR"
    },
    {
      "bufferView": 2,
      "byteOffset": 6912,
      "componentType": 5126,
      "count": 48,
      "max": [
        0.7874999642372131,
        0.7874999642372131,
        1.5
      ],
      "min": [
        -0.7874999642372131,
        -0.7874999642372131,
        -1.5
      ],
      "type": "VEC3"
    },
    {
      "bufferView": 2,
      "byteOffset": 7488,
      "componentType": 5126,
      "count": 48,
      "max": [
        0.8381332755088806,
        0.8381332159042358,
        0.44001996517181396
      ],
      "min": [
        -0.8381332159042358,
        -0.8381331562995911,
        -0.44001996517181396
      ],
      "type": "VEC3"
    },
    {
      "bufferView": 1,
      "byteOffset": 2304,
      "componentType": 5126,
      "count": 48,
      "max": [
        0.0,
        0.0
      ],
      "min": [
        0.0,
        0.0
      ],
      "type": "VEC2"
    },
    {
      "bufferView": 0,
      "byteOffset": 1152,
      "componentType": 5125,
      "count": 48,
      "type": "SCALAR"
    },
    {
      "bufferView": 2,
      "byteOffset": 8064,
      "componentType": 5126,
      "count": 48,
      "max": [
        0.7874999642372131,
        0.7874999642372131,
        1.5
      ],
      "min": [
        -0.7874999642372131,
        -0.7874999642372131,
        -1.5
      ],
      "type": "VEC3"
    },
    {
      "bufferView": 2,
      "byteOffset": 8640,
      "componentType": 5126,
      "count": 48,
      "max": [
        0.8381332755088806,
        0.8381332159042358,
        0.44001996517181396
      ],
      "min": [
        -0.8381332159042358,
        -0.8381331562995911,
        -0.44001996517181396
      ],
      "type": "VEC3"
    },
    {
      "bufferView": 1,
      "byteOffset": 2688,
      "componentType": 5126,
      "count": 48,
      "max": [
        0.0,
        0.0
      ],
      "min": [
        0.0,
        0.0
      ],
      "type": "VEC2"
    },
    {
      "bufferView": 0,
      "byteOffset": 1344,
      "componentType": 5125,
      "count": 48,
      "type": "SCALAR"
    },
    {
      "bufferView": 2,
      "byteOffset": 9216,
      "componentType": 5126,
      "count": 48,
      "max": [
        0.7874999642372131,
        0.7874999642372131,
        1.5
      ],
      "min": [
        -0.7874999642372131,
        -0.7874999642372131,
        -1.5
      ],
      "type": "VEC3"
    },
    {
      "bufferView": 2,
      "byteOffset": 9792,
      "componentType": 5126,
      "count": 48,
      "max": [
        0.8381332755088806,
        0.8381332159042358,
        0.44001996517181396
      ],
      "min": [
        -0.8381332159042358,
        -0.8381331562995911,
        -0.44001996517181396
      ],
      "type": "VEC3"
    },
    {
      "bufferView": 1,
      "byteOffset": 3072,
      "componentType": 5126,
      "count": 48,
      "max": [
        0.0,
        0.0
      ],
      "min": [
        0.0,
        0.0
      ],
      "type": "VEC2"
    },
    {
      "bufferView": 0,
      "byteOffset": 1536,
      "componentType": 5125,
      "count": 48,
      "type": "SCALAR"
    },
    {
      "bufferView": 2,
      "byteOffset": 10368,
      "componentType": 5126,
      "count": 48,
      "max": [
        0.7874999642372131,
        0.7874999642372131,
        1.5
      ],
      "min": [
        -0.7874999642372131,
        -0.7874999642372131,
        -1.5
      ],
      "type": "VEC3"
    },
    {
      "bufferView": 2,
      "byteOffset": 10944,
      "componentType": 5126,
      "count": 48,
      "max": [
        0.8381332755088806,
        0.8381332159042358,
        0.44001996517181396
      ],
      "min": [
        -0.8381332159042358,
        -0.8381331562995911,
        -0.44001996517181396
      ],
      "type": "VEC3"
    },
    {
      "bufferView": 1,
      "byteOffset": 3456,
      "componentType": 5126,
      "count": 48,
      "max": [
        0.0,
        0.0
      ],
      "min": [
        0.0,
        0.0
      ],
      "type": "VEC2"
    },
    {
      "bufferView": 0,
      "byteOffset": 1728,
      "componentType": 5125,
      "count": 48,
      "type": "SCALAR"
    },
    {
      "bufferView": 2,
      "byteOffset": 11520,
      "componentType": 5126,
      "count": 48,
      "max": [
        0.7874999642372131,
        0.7874999642372131,
        1.5
      ],
      "min": [
        -0.7874999642372131,
        -0.7874999642372131,
        -1.5
      ],
      "type": "VEC3"
    },
    {
      "bufferView": 2,
      "byteOffset": 12096,
      "componentType": 5126,
      "count": 48,
      "max": [
        0.8381332755088806,
        0.8381332159042358,
        0.44001996517181396
      ],
      "min": [
        -0.8381332159042358,
        -0.8381331562995911,
        -0.44001996517181396
      ],
      "type": "VEC3"
    },
    {
      "bufferView": 1,
      "byteOffset": 3840,
      "componentType": 5126,
      "count": 48,
      "max": [
        0.0,
        0.0
      ],
      "min": [
        0.0,
        0.0
      ],
      "type": "VEC2"
    },
    {
      "bufferView": 0,
      "byteOffset": 1920,
      "componentType": 5125,
      "count": 48,
      "type": "SCALAR"
    },
    {
      "bufferView": 2,
      "byteOffset": 12672,
      "componentType": 5126,
      "count": 48,
      "max": [
        0.7874999642372131,
        0.7874999642372131,
        1.5
      ],
      "min": [
        -0.7874999642372131,
        -0.7874999642372131,
        -1.5
      ],
      "type": "VEC3"
    },
    {
      "bufferView": 2,
      "byteOffset": 13248,
      "componentType": 5126,
      "count": 48,
      "max": [
        0.8381332755088806,
        0.8381332159042358,
        0.44001996517181396
      ],
      "min": [
        -0.8381332159042358,
        -0.8381331562995911,
        -0.44001996517181396
      ],
      "type": "VEC3"
    },
    {
      "bufferView": 1,
      "byteOffset": 4224,
      "componentType": 5126,
      "count": 48,
      "max": [
        0.0,
        0.0
      ],
      "min": [
        0.0,
        0.0
      ],
      "type": "VEC2"
    },
    {
      "bufferView": 0,
      "byteOffset": 2112,
      "componentType": 5125,
      "count": 48,
      "type": "SCALAR"
    },
    {
      "bufferView": 2,
      "byteOffset": 13824,
      "componentType": 5126,
      "count": 48,
      "max": [
        0.7874999642372131,
        0.7874999642372131,
        1.5
      ],
      "min": [
        -0.7874999642372131,
        -0.7874999642372131,
        -1.5
      ],
      "type": "VEC3"
    },
    {
      "bufferView": 2,
      "byteOffset": 14400,
      "componentType": 5126,
      "count": 48,
      "max": [
        0.8381332755088806,
        0.8381332159042358,
        0.44001996517181396
      ],
      "min": [
        -0.8381332159042358,
        -0.8381331562995911,
        -0.44001996517181396
      ],
      "type": "VEC3"
    },
    {
      "bufferView": 1,
      "byteOffset": 4608,
      "componentType": 5126,
      "count": 48,
      "max": [
        0.0,
        0.0
      ],
      "min": [
        0.0,
        0.0
      ],
      "type": "VEC2"
    },
    {
      "bufferView": 0,
      "byteOffset": 2304,
      "componentType": 5125,
      "count": 48,
      "type": "SCALAR"
    },
    {
      "bufferView": 2,
      "byteOffset": 14976,
      "componentType": 5126,
      "count": 48,
      "max": [
        0.7874999642372131,
        0.7874999642372131,
        1.5
      ],
      "min": [
        -0.7874999642372131,
        -0.7874999642372131,
        -1.5
      ],
      "type": "VEC3"
    },
    {
      "bufferView": 2,
      "byteOffset": 15552,
      "componentType": 5126,
      "count": 48,
      "max": [
        0.8381332755088806,
        0.8381332159042358,
        0.44001996517181396
      ],
      "min": [
        -0.8381332159042358,
        -0.8381331562995911,
        -0.44001996517181396
      ],
      "type": "VEC3"
    },
    {
      "bufferView": 1,
      "byteOffset": 4992,
      "componentType": 5126,
      "count": 48,
      "max": [
        0.0,
        0.0
      ],
      "min": [
        0.0,
        0.0
      ],
      "type": "VEC2"
    },
    {
      "bufferView": 0,
      "byteOffset": 2496,
      "componentType": 5125,
      "count": 48,
      "type": "SCALAR"
    },
    {
      "bufferView": 2,
      "byteOffset": 16128,
      "componentType": 5126,
      "count": 48,
      "max": [
        0.7874999642372131,
        0.7874999642372131,
        1.5
      ],
      "min": [
        -0.7874999642372131,
        -0.7874999642372131,
        -1.5
      ],
      "type": "VEC3"
    },
    {
      "bufferView": 2,
      "byteOffset": 16704,
      "componentType": 5126,
      "count": 48,
      "max": [
        0.8381332755088806,
        0.8381332159042358,
        0.44001996517181396
      ],
      "min": [
        -0.8381332159042358,
        -0.8381331562995911,
        -0.44001996517181396
      ],
      "type": "VEC3"
    },
    {
      "bufferView": 1,
      "byteOffset": 5376,
      "componentType": 5126,
      "count": 48,
      "max": [
        0.0,
        0.0
      ],
      "min": [
        0.0,
        0.0
      ],
      "type": "VEC2"
    },
    {
      "bufferView": 0,
      "byteOffset": 2688,
      "componentType": 5125,
      "count": 48,
      "type": "SCALAR"
    }
  ],
  "asset": {
    "extras": {
      "author": "MaggaModels (https://sketchfab.com/MaggaModels)",
      "license": "CC-BY-4.0 (http://creativecommons.org/licenses/by/4.0/)",
      "source": "https://sketchfab.com/3d-models/sims-4-emotion-plumbobs-fcefa346fb744014a39c28edace3f972",
      "title": "Sims 4 Emotion Plumbobs"
    },
    "generator": "Sketchfab-12.66.0",
    "version": "2.0"
  },
  "bufferViews": [
    {
      "buffer": 0,
      "byteLength": 2880,
      "name": "floatBufferViews",
      "target": 34963
    },
    {
      "buffer": 0,
      "byteLength": 5760,
      "byteOffset": 2880,
      "byteStride": 8,
      "name": "floatBufferViews",
      "target": 34962
    },
    {
      "buffer": 0,
      "byteLength": 17280,
      "byteOffset": 8640,
      "byteStride": 12,
      "name": "floatBufferViews",
      "target": 34962
    }
  ],
  "buffers": [
    {
      "byteLength": 25920,
      "uri": "scene.bin"
    }
  ],
  "materials": [
    {
      "doubleSided": true,
      "name": "HappyGreen",
      "pbrMetallicRoughness": {
        "baseColorFactor": [
          0.0136987,
          0.787412,
          0.0199283,
          1.0
        ],
        "metallicFactor": 0.0,
        "roughnessFactor": 0.8731013022
      }
    },
    {
      "doubleSided": true,
      "name": "TenseBrown",
      "pbrMetallicRoughness": {
        "baseColorFactor": [
          0.787412,
          0.249058,
          0.0213693,
          1.0
        ],
        "metallicFactor": 0.0,
        "roughnessFactor": 0.9223921321
      }
    },
    {
      "doubleSided": true,
      "name": "SadBlue",
      "pbrMetallicRoughness": {
        "baseColorFactor": [
          0.011269,
          0.038726,
          0.787412,
          1.0
        ],
        "metallicFactor": 0.0,
        "roughnessFactor": 0.9805587818
      }
    },
    {
      "doubleSided": true,
      "name": "FocusedPurple",
      "pbrMetallicRoughness": {
        "baseColorFactor": [
          0.194506,
          0.0468906,
          0.8,
          1.0
        ],
        "metallicFactor": 0.0,
        "roughnessFactor": 0.9703389758
      }
    },
    {
      "doubleSided": true,
      "name": "InspiredTeal",
      "pbrMetallicRoughness": {
        "baseColorFactor": [
          0.0931986,
          0.787412,
          0.787412,
          1.0
        ],
        "metallicFactor": 0.0,
        "roughnessFactor": 0.8569313998
      }
    },
    {
      "doubleSided": true,
      "name": "UncomfortableOrange",
      "pbrMetallicRoughness": {
        "baseColorFactor": [
          0.787412,
          0.153,
          0.041435,
          1.0
        ],
        "metallicFactor": 0.0,
        "roughnessFactor": 0.9374301226
      }
    },
    {
      "doubleSided": true,
      "name": "BoredGrey",
      "pbrMetallicRoughness": {
        "baseColorFactor": [
          0.214041,
          0.214041,
          0.214041,
          1.0
        ],
        "metallicFactor": 0.0,
        "roughnessFactor": 0.9521389774
      }
    },
    {
      "doubleSided": true,
      "name": "ConfidentBlue",
      "pbrMetallicRoughness": {
        "baseColorFactor": [
          0.041435,
          0.26932,
          0.787412,
          1.0
        ],
        "metallicFactor": 0.0,
        "roughnessFactor": 0.9422473078
      }
    },
    {
      "doubleSided": true,
      "name": "AngryRed",
      "pbrMetallicRoughness": {
        "baseColorFactor": [
          0.787412,
          0.0163373,
          0.0163373,
          1.0
        ],
        "metallicFactor": 0.0,
        "roughnessFactor": 0.9596908987
      }
    },
    {
      "doubleSided": true,
      "name": "DazedLavender",
      "pbrMetallicRoughness": {
        "baseColorFactor": [
          0.500596,
          0.286289,
          0.787412,
          1.0
        ],
        "metallicFactor": 0.0,
        "roughnessFactor": 0.9177055992
      }
    },
    {
      "doubleSided": true,
      "name": "EnergizedGreen",
      "pbrMetallicRoughness": {
        "baseColorFactor": [
          0.374043,
          0.787412,
          0.0247773,
          1.0
        ],
        "metallicFactor": 0.0,
        "roughnessFactor": 0.8558926804
      }
    },
    {
      "doubleSided": true,
      "name": "FlirtyPink",
      "pbrMetallicRoughness": {
        "baseColorFactor": [
          0.787412,
          0.0632682,
          0.313563,
          1.0
        ],
        "metallicFactor": 0.0,
        "roughnessFactor": 0.9473870073
      }
    },
    {
      "doubleSided": true,
      "name": "AsleepBlack",
      "pbrMetallicRoughness": {
        "baseColorFactor": [
          0.0159632,
          0.00570601,
          0.052896,
          1.0
        ],
        "metallicFactor": 0.0,
        "roughnessFactor": 0.9974746282
      }
    },
    {
      "doubleSided": true,
      "name": "EmbarrassedYellow",
      "pbrMetallicRoughness": {
        "baseColorFactor": [
          0.787412,
          0.773681,
          0.0338891,
          1.0
        ],
        "metallicFactor": 0.0,
        "roughnessFactor": 0.8382904180999999
      }
    },
    {
      "doubleSided": true,
      "name": "PlayfulFuscia",
      "pbrMetallicRoughness": {
        "baseColorFactor": [
          0.787412,
          0.049881,
          0.664411,
          1.0
        ],
        "metallicFactor": 0.0,
        "roughnessFactor": 0.943863702
      }
    }
  ],
  "meshes": [
    {
      "name": "Happy Plumbob_HappyGreen_0",
      "primitives": [
        {
          "attributes": {
            "NORMAL": 1,
            "POSITION": 0,
            "TEXCOORD_0": 2
          },
          "indices": 3,
          "material": 0,
          "mode": 4
        }
      ]
    },
    {
      "name": "Tense Plumbob_TenseBrown_0",
      "primitives": [
        {
          "attributes": {
            "NORMAL": 5,
            "POSITION": 4,
            "TEXCOORD_0": 6
          },
          "indices": 7,
          "material": 1,
          "mode": 4
        }
      ]
    },
    {
      "name": "Sad Plumbob_SadBlue_0",
      "primitives": [
        {
          "attributes": {
            "NORMAL": 9,
            "POSITION": 8,
            "TEXCOORD_0": 10
          },
          "indices": 11,
          "material": 2,
          "mode": 4
        }
      ]
    },
    {
      "name": "Focused Plumbob_FocusedPurple_0",
      "primitives": [
        {
          "attributes": {
            "NORMAL": 13,
            "POSITION": 12,
            "TEXCOORD_0": 14
          },
          "indices": 15,
          "material": 3,
          "mode": 4
        }
      ]
    },
    {
      "name": "Inspired Plumbob_InspiredTeal_0",
      "primitives": [
        {
          "attributes": {
            "NORMAL": 17,
            "POSITION": 16,
            "TEXCOORD_0": 18
          },
          "indices": 19,
          "material": 4,
          "mode": 4
        }
      ]
    },
    {
      "name": "Uncomfortable Plumbob_UncomfortableOrange_0",
      "primitives": [
        {
          "attributes": {
            "NORMAL": 21,
            "POSITION": 20,
            "TEXCOORD_0": 22
          },
          "indices": 23,
          "material": 5,
          "mode": 4
        }
      ]
    },
    {
      "name": "Bored Plumbob_BoredGrey_0",
      "primitives": [
        {
          "attributes": {
            "NORMAL": 25,
            "POSITION": 24,
            "TEXCOORD_0": 26
          },
          "indices": 27,
          "material": 6,
          "mode": 4
        }
      ]
    },
    {
      "name": "Confident Plumbob_ConfidentBlue_0",
      "primitives": [
        {
          "attributes": {
            "NORMAL": 29,
            "POSITION": 28,
            "TEXCOORD_0": 30
          },
          "indices": 31,
          "material": 7,
          "mode": 4
        }
      ]
    },
    {
      "name": "Angry Plumbob_AngryRed_0",
      "primitives": [
        {
          "attributes": {
            "NORMAL": 33,
            "POSITION": 32,
            "TEXCOORD_0": 34
          },
          "indices": 35,
          "material": 8,
          "mode": 4
        }
      ]
    },
    {
      "name": "Dazed Plumbob_DazedLavender_0",
      "primitives": [
        {
          "attributes": {
            "NORMAL": 37,
            "POSITION": 36,
            "TEXCOORD_0": 38
          },
          "indices": 39,
          "material": 9,
          "mode": 4
        }
      ]
    },
    {
      "name": "Energized Plumbob_EnergizedGreen_0",
      "primitives": [
        {
          "attributes": {
            "NORMAL": 41,
            "POSITION": 40,
            "TEXCOORD_0": 42
          },
          "indices": 43,
          "material": 10,
          "mode": 4
        }
      ]
    },
    {
      "name": "Flirty Plumbob_FlirtyPink_0",
      "primitives": [
        {
          "attributes": {
            "NORMAL": 45,
            "POSITION": 44,
            "TEXCOORD_0": 46
          },
          "indices": 47,
          "material": 11,
          "mode": 4
        }
      ]
    },
    {
      "name": "Asleep Plumbob_AsleepBlack_0",
      "primitives": [
        {
          "attributes": {
            "NORMAL": 49,
            "POSITION": 48,
            "TEXCOORD_0": 50
          },
          "indices": 51,
          "material": 12,
          "mode": 4
        }
      ]
    },
    {
      "name": "Embarrased Plumbob_EmbarrassedYellow_0",
      "primitives": [
        {
          "attributes": {
            "NORMAL": 53,
            "POSITION": 52,
            "TEXCOORD_0": 54
          },
          "indices": 55,
          "material": 13,
          "mode": 4
        }
      ]
    },
    {
      "name": "Playful Plumbob_PlayfulFuscia_0",
      "primitives": [
        {
          "attributes": {
            "NORMAL": 57,
            "POSITION": 56,
            "TEXCOORD_0": 58
          },
          "indices": 59,
          "material": 14,
          "mode": 4
        }
      ]
    }
  ],
  "nodes": [
    {
      "children": [
        1
      ],
      "matrix": [
        1.0,
        0.0,
        0.0,
        0.0,
        0.0,
        2.220446049250313e-16,
        -1.0,
        0.0,
        0.0,
        1.0,
        2.220446049250313e-16,
        0.0,
        0.0,
        0.0,
        0.0,
        1.0
      ],
      "name": "Sketchfab_model"
    },
    {
      "children": [
        2
      ],
      "matrix": [
        0.009999999776482582,
        0.0,
        0.0,
        0.0,
        0.0,
        0.0,
        0.009999999776482582,
        0.0,
        0.0,
        -0.009999999776482582,
        0.0,
        0.0,
        0.0,
        0.0,
        0.0,
        1.0
      ],
      "name": "1fca93690ff94a9da705fbe21f23bdcf.fbx"
    },
    {
      "children": [
        3,
        5,
        7,
        9,
        11,
        13,
        15,
        17,
        19,
        21,
        23,
        25,
        27,
        29,
        31
      ],
      "name": "RootNode"
    },
    {
      "children": [
        4
      ],
      "matrix": [
        4.371139006309477e-06,
        1.1102230246251565e-14,
        99.99999999999991,
        0.0,
        99.99999999999982,
        -4.371139006309477e-06,
        -4.371139011860592e-06,
        0.0,
        4.371139011860592e-06,
        99.99999999999991,
        -1.9984014443252818e-13,
        0.0,
        -1400.0001220703125,
        0.0,
        -1400.000244140625,
        1.0
      ],
      "name": "Happy Plumbob"
    },
    {
      "mesh": 0,
      "name": "Happy Plumbob_HappyGreen_0"
    },
    {
      "children": [
        6
      ],
      "matrix": [
        4.371139006309477e-06,
        1.1102230246251565e-14,
        99.99999999999991,
        0.0,
        99.99999999999982,
        -4.371139006309477e-06,
        -4.371139011860592e-06,
        0.0,
        4.371139011860592e-06,
        99.99999999999991,
        -1.9984014443252818e-13,
        0.0,
        -1200.0001220703125,
        0.0,
        -1400.000244140625,
        1.0
      ],
      "name": "Tense Plumbob"
    },
    {
      "mesh": 1,
      "name": "Tense Plumbob_TenseBrown_0"
    },
    {
      "children": [
        8
      ],
      "matrix": [
        4.371139006309477e-06,
        1.1102230246251565e-14,
        99.99999999999991,
        0.0,
        99.99999999999982,
        -4.371139006309477e-06,
        -4.371139011860592e-06,
        0.0,
        4.371139011860592e-06,
        99.99999999999991,
        -1.9984014443252818e-13,
        0.0,
        -1000.0001220703125,
        0.0,
        -1400.0001220703125,
        1.0
      ],
      "name": "Sad Plumbob"
    },
    {
      "mesh": 2,
      "name": "Sad Plumbob_SadBlue_0"
    },
    {
      "children": [
        10
      ],
      "matrix": [
        4.371139006309477e-06,
        1.1102230246251565e-14,
        99.99999999999991,
        0.0,
        99.99999999999982,
        -4.371139006309477e-06,
        -4.371139011860592e-06,
        0.0,
        4.371139011860592e-06,
        99.99999999999991,
        -1.9984014443252818e-13,
        0.0,
        -800.0001220703125,
        0.0,
        -1400.0001220703125,
        1.0
      ],
      "name": "Focused Plumbob"
    },
    {
      "mesh": 3,
      "name": "Focused Plumbob_FocusedPurple_0"
    },
    {
      "children": [
        12
      ],
      "matrix": [
        4.371139006309477e-06,
        1.1102230246251565e-14,
        99.99999999999991,
        0.0,
        99.99999999999982,
        -4.371139006309477e-06,
        -4.371139011860592e-06,
        0.0,
        4.371139011860592e-06,
        99.99999999999991,
        -1.9984014443252818e-13,
        0.0,
        -600.0001220703125,
        0.0,
        -1400.0001220703125,
        1.0
      ],
      "name": "Inspired Plumbob"
    },
    {
      "mesh": 4,
      "name": "Inspired Plumbob_InspiredTeal_0"
    },
    {
      "children": [
        14
      ],
      "matrix": [
        4.371139006309477e-06,
        1.1102230246251565e-14,
        99.99999999999991,
        0.0,
        99.99999999999982,
        -4.371139006309477e-06,
        -4.371139011860592e-06,
        0.0,
        4.371139011860592e-06,
        99.99999999999991,
        -1.9984014443252818e-13,
        0.0,
        -400.0000915527344,
        0.0,
        -1400.0001220703125,
        1.0
      ],
      "name": "Uncomfortable Plumbob"
    },
    {
      "mesh": 5,
      "name": "Uncomfortable Plumbob_UncomfortableOrange_0"
    },
    {
      "children": [
        16
      ],
      "matrix": [
        4.371139006309477e-06,
        1.1102230246251565e-14,
        99.99999999999991,
        0.0,
        99.99999999999982,
        -4.371139006309477e-06,
        -4.371139011860592e-06,
        0.0,
        4.371139011860592e-06,
        99.99999999999991,
        -1.9984014443252818e-13,
        0.0,
        -200.00009155273438,
        0.0,
        -1400.0001220703125,
        1.0
      ],
      "name": "Bored Plumbob"
    },
    {
      "mesh": 6,
      "name": "Bored Plumbob_BoredGrey_0"
    },
    {
      "children": [
        18
      ],
      "matrix": [
        4.371139006309477e-06,
        1.1102230246251565e-14,
        99.99999999999991,
        0.0,
        99.99999999999982,
        -4.371139006309477e-06,
        -4.371139011860592e-06,
        0.0,
        4.371139011860592e-06,
        99.99999999999991,
        -1.9984014443252818e-13,
        0.0,
        -9.5367431640625e-05,
        0.0,
        -1400.0001220703125,
        1.0
      ],
      "name": "Confident Plumbob"
    },
    {
      "mesh": 7,
      "name": "Confident Plumbob_ConfidentBlue_0"
    },
    {
      "children": [
        20
      ],
      "matrix": [
        4.371139006309477e-06,
        1.1102230246251565e-14,
        99.99999999999991,
        0.0,
        99.99999999999982,
        -4.371139006309477e-06,
        -4.371139011860592e-06,
        0.0,
        4.371139011860592e-06,
        99.99999999999991,
        -1.9984014443252818e-13,
        0.0,
        199.99990844726563,
        0.0,
        -1400.0001220703125,
        1.0
      ],
      "name": "Angry Plumbob"
    },
    {
      "mesh": 8,
      "name": "Angry Plumbob_AngryRed_0"
    },
    {
      "children": [
        22
      ],
      "matrix": [
        4.371139006309477e-06,
        1.1102230246251565e-14,
        99.99999999999991,
        0.0,
        99.99999999999982,
        -4.371139006309477e-06,
        -4.371139011860592e-06,
        0.0,
        4.371139011860592e-06,
        99.99999999999991,
        -1.9984014443252818e-13,
        0.0,
        399.9999084472656,
        0.0,
        -1400.0001220703125,
        1.0
      ],
      "name": "Dazed Plumbob"
    },
    {
      "mesh": 9,
      "name": "Dazed Plumbob_DazedLavender_0"
    },
    {
      "children": [
        24
      ],
      "matrix": [
        4.371139006309477e-06,
        1.1102230246251565e-14,
        99.99999999999991,
        0.0,
        99.99999999999982,
        -4.371139006309477e-06,
        -4.371139011860592e-06,
        0.0,
        4.371139011860592e-06,
        99.99999999999991,
        -1.9984014443252818e-13,
        0.0,
        599.9998779296875,
        0.0,
        -1400.0001220703125,
        1.0
      ],
      "name": "Energized Plumbob"
    },
    {
      "mesh": 10,
      "name": "Energized Plumbob_EnergizedGreen_0"
    },
    {
      "children": [
        26
      ],
      "matrix": [
        4.371139006309477e-06,
        1.1102230246251565e-14,
        99.99999999999991,
        0.0,
        99.99999999999982,
        -4.371139006309477e-06,
        -4.371139011860592e-06,
        0.0,
        4.371139011860592e-06,
        99.99999999999991,
        -1.9984014443252818e-13,
        0.0,
        799.9998779296875,
        0.0,
        -1400.0001220703125,
        1.0
      ],
      "name": "Flirty Plumbob"
    },
    {
      "mesh": 11,
      "name": "Flirty Plumbob_FlirtyPink_0"
    },
    {
      "children": [
        28
      ],
      "matrix": [
        4.371139006309477e-06,
        1.1102230246251565e-14,
        99.99999999999991,
        0.0,
        99.99999999999982,
        -4.371139006309477e-06,
        -4.371139011860592e-06,
        0.0,
        4.371139011860592e-06,
        99.99999999999991,
        -1.9984014443252818e-13,
        0.0,
        1399.9998779296875,
        0.0,
        -1400.0,
        1.0
      ],
      "name": "Asleep Plumbob"
    },
    {
      "mesh": 12,
      "name": "Asleep Plumbob_AsleepBlack_0"
    },
    {
      "children": [
        30
      ],
      "matrix": [
        4.371139006309477e-06,
        1.1102230246251565e-14,
        99.99999999999991,
        0.0,
        99.99999999999982,
        -4.371139006309477e-06,
        -4.371139011860592e-06,
        0.0,
        4.371139011860592e-06,
        99.99999999999991,
        -1.9984014443252818e-13,
        0.0,
        999.9998779296875,
        0.0,
        -1400.0001220703125,
        1.0
      ],
      "name": "Embarrased Plumbob"
    },
    {
      "mesh": 13,
      "name": "Embarrased Plumbob_EmbarrassedYellow_0"
    },
    {
      "children": [
        32
      ],
      "matrix": [
        4.371139006309477e-06,
        1.1102230246251565e-14,
        99.99999999999991,
        0.0,
        99.99999999999982,
        -4.371139006309477e-06,
        -4.371139011860592e-06,
        0.0,
        4.371139011860592e-06,
        99.99999999999991,
        -1.9984014443252818e-13,
        0.0,
        1199.9998779296875,
        0.0,
        -1400.0,
        1.0
      ],
      "name": "Playful Plumbob"
    },
    {
      "mesh": 14,
      "name": "Playful Plumbob_PlayfulFuscia_0"
    }
  ],
  "scene": 0,
  "scenes": [
    {
      "name": "Sketchfab_Scene",
      "nodes": [
        0
      ]
    }
  ]
}
